<?xml version="1.0" encoding="UTF-8" standalone="no"?>
<!-- Created with Inkscape (http://www.inkscape.org/) -->

<svg
   version="1.1"
   id="svg2"
   xml:space="preserve"
   width="1164"
   height="797.33331"
   viewBox="0 0 1164 797.33331"
   sodipodi:docname="openxpki.svg"
   inkscape:version="1.1.2 (0a00cf5339, 2022-02-04)"
   xmlns:inkscape="http://www.inkscape.org/namespaces/inkscape"
   xmlns:sodipodi="http://sodipodi.sourceforge.net/DTD/sodipodi-0.dtd"
   xmlns="http://www.w3.org/2000/svg"
   xmlns:svg="http://www.w3.org/2000/svg"><defs
     id="defs6" /><sodipodi:namedview
     id="namedview4"
     pagecolor="#ffffff"
     bordercolor="#666666"
     borderopacity="1.0"
     inkscape:pageshadow="2"
     inkscape:pageopacity="0.0"
     inkscape:pagecheckerboard="0"
     showgrid="false"
     inkscape:zoom="1.0948997"
     inkscape:cx="527.44558"
     inkscape:cy="398.66666"
     inkscape:window-width="3792"
     inkscape:window-height="1536"
     inkscape:window-x="0"
     inkscape:window-y="0"
     inkscape:window-maximized="1"
     inkscape:current-layer="g8" /><g
     id="g8"
     inkscape:groupmode="layer"
     inkscape:label="ink_ext_XXXXXX"
     transform="matrix(1.3333333,0,0,-1.3333333,0,797.33333)"><g
       id="g10"
       transform="scale(0.1)"><path
         d="m 1770.55,2711.7 c 23.18,73.21 32.45,150.14 32.45,226.75 0,76.51 -8.03,154.26 -30.54,227.62 -19.16,62.11 -48.33,120.33 -91.39,169.37 l -0.04,0.05 c -41.46,47.66 -93.02,82.35 -151.57,105.63 l -0.07,0.02 c -67.91,27.42 -142.78,36.76 -215.6,36.76 -76.03,0 -153.29,-10.81 -223.44,-41.29 l -0.06,-0.03 c -61.32,-26.28 -115.376,-63.79 -158.845,-114.63 -44.406,-51.93 -75.273,-112.2 -95.414,-177.28 -22.429,-73.42 -31.703,-150.24 -31.703,-226.87 0,-76.53 7.922,-155.01 30.176,-228.49 18.746,-62.24 47.781,-120.49 90.625,-169.72 41.457,-47.66 93.021,-82.35 151.571,-105.62 68.12,-27.09 142.71,-36.79 215.67,-36.79 76.08,0 152.88,11.36 223.08,41.69 61.49,26.57 115.66,64.43 159.27,115.43 44.41,51.95 75.64,112.16 95.8,177.31 z m -727.94,-76.94 c -26.8,40.65 -43.672,86.62 -53.399,134.17 -10.859,53 -15.481,107.26 -15.481,161.34 0,55.67 5.497,111.41 19.125,165.46 12.005,47.67 31.015,93.25 59.845,133.27 26.99,38.03 61.91,67.66 103.75,88.16 46.5,23.04 98.01,31.45 149.55,31.45 53.94,0 109.41,-8.55 157.39,-34.4 l 0.06,-0.01 c 41.54,-22.6 75.58,-53.29 100.96,-93.23 l 0.05,-0.09 c 25.84,-41.35 42.72,-87.05 52.49,-134.72 10.78,-52.68 15.87,-106.43 15.87,-160.17 0,-55.99 -5.43,-112.08 -18.71,-166.54 -11.59,-47.45 -30.48,-93.19 -59.54,-132.68 -27.32,-38.06 -62.43,-67.08 -104.47,-87.69 -46.17,-22.86 -97.64,-31.06 -148.77,-31.06 -53.83,0 -109.49,8.22 -157.4,34.01 l -0.05,0.02 c -41.34,22.48 -75.81,53.09 -101.27,92.71 z M 4658.7,2400.05 c 7.33,-3.21 16.5,-4.84 24.37,-5.85 14.89,-1.86 30.37,-2.22 45.37,-2.22 14.51,0 29.39,0.42 43.8,2.22 7.92,1.03 17.16,2.66 24.5,5.92 3.17,1.4 7.06,3.45 9.15,6.33 l 0.19,0.26 0.21,0.26 c 1.23,1.54 1.59,4.53 1.59,6.42 v 626.71 c 0,60.91 -4.06,125.1 -18.68,184.39 l -0.02,0.08 c -11.38,47.32 -30.52,92 -59.54,131.23 -28.62,38.28 -65.89,67.45 -108.67,88.49 l -0.08,0.04 c -51.01,25.51 -110.21,33.57 -166.67,33.57 -59.08,0 -115.1,-16.28 -167.23,-43.58 -64.31,-33.46 -121.02,-85.3 -168.96,-139.07 l -24.51,-27.5 v 172.78 c 0,2.91 -0.54,5.53 -1.79,8.11 -2.03,2.51 -5.73,5.02 -8.35,6.61 -5.42,2.98 -14.14,4.17 -20.17,4.82 -13.27,1.42 -26.83,1.86 -40.18,1.86 -13.42,0 -27.18,-0.38 -40.56,-1.86 -6.99,-0.75 -15.18,-2 -21.57,-5.15 -2.15,-1.15 -6.46,-3.75 -7.88,-5.84 -1.32,-2.58 -1.65,-5.7 -1.65,-8.55 V 2413.39 c 0,-2.19 0.46,-5.3 1.75,-7.14 l 0.45,-0.64 0.36,-0.67 c 1.09,-1.64 6.22,-3.98 7.95,-4.72 l 0.12,-0.05 0.13,-0.05 c 7.31,-3.26 16.99,-4.89 24.89,-5.92 14.4,-1.8 29.29,-2.22 43.8,-2.22 15,0 30.47,0.36 45.36,2.22 7.88,1.01 17.05,2.64 24.38,5.85 2.91,1.39 7.35,3.76 9.27,6.4 l 0.2,0.26 0.2,0.26 c 1.23,1.54 1.59,4.53 1.59,6.42 v 722.76 l 3.06,3.84 c 43.41,54.59 94.06,109.62 151.26,149.94 44.32,31.5 94.46,52.85 149.52,52.85 35.49,0 70.38,-6.32 102.38,-22.08 30.18,-14.68 54.71,-36.2 73.59,-63.9 l 0.05,-0.09 c 19.83,-29.51 33.07,-62.65 41.68,-97.03 11.96,-45.41 14.08,-98.12 14.08,-144.89 v -601.4 c 0,-1.89 0.35,-4.88 1.58,-6.42 l 0.21,-0.26 0.18,-0.26 c 1.93,-2.64 6.37,-5.01 9.29,-6.4 z m -1688.06,756.09 c -24.1,-75.24 -33.59,-154.84 -33.59,-233.66 0,-80.44 8.5,-162.97 32.46,-240.03 19.81,-62.56 50.03,-120.87 95.01,-169.1 43.43,-46.13 95.83,-79.41 155.12,-101.61 69.02,-25.4 143.9,-34.56 217.15,-34.56 45.22,0 90.51,3.4 135.16,10.7 37.53,6.49 75.15,14.17 111.89,24.22 25.94,7.41 53.23,15.95 77.75,27.27 l 0.09,0.04 c 6.75,3.07 28.2,12.72 33.27,17.78 3.01,3.03 5.74,6.64 8.05,10.24 1.99,3.47 3.29,7.1 4.07,11.03 1.2,5.98 1.9,12.13 2.53,18.19 l 0.01,0.09 c 0.89,7.96 1.08,16.15 1.08,24.15 0,11.11 -0.56,22.15 -1.48,33.2 -0.75,5.95 -2.03,12.63 -4.39,18.14 -0.99,2.3 -2.22,4.39 -4.37,5.77 l -0.27,0.16 -0.25,0.18 c -1.5,1.06 -4.19,1.36 -5.97,1.36 -10.03,0 -25.71,-6.72 -34.68,-10.81 l -0.12,-0.06 -0.11,-0.04 c -22.69,-9.87 -46.07,-18.61 -69.41,-26.83 -32.42,-11.86 -66.62,-20.44 -100.4,-27.4 -43.44,-9.31 -88.63,-12.38 -132.99,-12.38 -54.44,0 -111.17,6.38 -161.92,27.16 -42.64,17.6 -80.04,43.73 -109.15,79.67 -29.56,36 -48.83,77.66 -60,122.75 -12.66,51.48 -17.56,104.69 -17.56,157.6 v 14.05 h 687.51 c 15.91,0 29.43,5.16 41.6,15.39 14.4,12.13 17.2,35.17 17.2,52.76 v 34.28 c 0,62.67 -7.7,124.73 -25.15,184.98 -15.89,54.56 -40.89,105.12 -77.5,148.76 -36.83,43.88 -82.92,76.97 -134.94,100.65 -62.08,28.49 -132.44,37.67 -200.21,37.67 -68.19,0 -135.68,-11.18 -198.52,-38.18 -58.47,-25.32 -108.91,-61.32 -150.81,-109.31 l -0.03,-0.05 c -44.51,-50.51 -75.24,-110.51 -96.13,-174.22 z m 216.89,101.63 c 25.18,31.05 56.37,55.46 92.29,73.03 40.12,20.06 83.92,27.94 128.52,27.94 83.48,0 161.32,-23.28 215.36,-89.66 25.59,-30.98 42.94,-66.92 53.82,-105.49 12.45,-44.18 16.26,-90.89 15.18,-136.67 l -0.33,-13.7 h -585.28 l 0.55,14.56 c 1.57,42.54 9.06,84.29 22.54,124.69 12.87,38.23 31.65,74.1 57.35,105.3 z m -604.98,-841.5 c 53.65,26.45 98.63,63.42 134.79,111.12 39.58,52.78 66.04,113.95 82.96,177.45 l 0.01,0.09 c 21.08,77.15 28.71,158.4 28.71,238.2 0,70 -6.64,140.06 -22.6,208.3 l -0.02,0.07 c -13.8,60.51 -36.24,118.71 -70.48,170.68 -31.76,48.2 -72.55,86.08 -123.18,113.82 l -0.07,0.05 c -56.03,31.13 -120.19,41.85 -183.66,41.85 -31.71,0 -63.47,-3.44 -94.15,-11.6 l -0.16,-0.04 c -30.28,-7.66 -59.3,-19.55 -86.82,-34.22 l -0.07,-0.04 c -30.29,-15.94 -58.46,-35.47 -84.86,-57.23 l -0.08,-0.06 -0.08,-0.07 c -31.52,-25.21 -61.04,-53.09 -89.03,-82.13 l -24.13,-25.05 v 173.07 c 0,1.93 -0.2,6.62 -1.37,8.31 l -0.17,0.25 -0.17,0.25 c -1.52,2.39 -5.81,4.53 -8.27,5.62 l -0.14,0.06 -0.14,0.07 c -6.24,2.94 -14.48,4.23 -21.29,4.99 h -0.05 c -12.44,1.43 -25.21,1.85 -37.73,1.85 -12.32,0 -24.77,-0.49 -37.05,-1.86 -7.27,-0.78 -15.41,-2.07 -22.16,-5.05 -1.77,-0.84 -6.22,-3.17 -7.15,-4.86 l -0.14,-0.25 -0.14,-0.25 c -1.29,-2.14 -1.51,-6.74 -1.51,-9.13 V 2005.96 c 0,-3.14 0.8,-6.19 2.37,-8.9 l 0.11,-0.17 0.08,-0.18 c 1.04,-1.85 6.11,-4.31 7.94,-5.08 l 0.12,-0.06 0.14,-0.05 c 7.25,-3.22 16.8,-4.86 24.66,-5.89 14.61,-1.36 29.36,-1.86 44.03,-1.86 15.17,0 30.45,0.46 45.57,1.86 7.83,1.02 16.9,2.64 24.15,5.82 3.09,1.47 6.98,3.8 9.12,6.57 1.52,2.39 2.16,5.11 2.16,7.94 v 547.31 l 23.9,-23.55 c 24.41,-24.08 49.82,-47.23 76.48,-68.81 l 0.09,-0.07 c 22.04,-18.13 45.73,-34.35 71.13,-47.44 l 0.08,-0.04 c 22.95,-12.03 47.2,-21.5 72.51,-27.18 l 0.12,-0.02 0.12,-0.03 c 26.4,-6.4 53.7,-8.95 80.83,-8.95 63.95,0 126.83,11.17 184.69,39.09 z m -342.61,880.27 c 23.31,15.05 48.51,27.44 75,35.84 l 0.07,0.02 c 24.87,7.74 50.19,11.55 76.23,11.55 46.33,0 91.34,-10.17 129.89,-36.78 l 0.09,-0.06 c 35.52,-24.95 62.82,-57.64 82.69,-96.2 l 0.03,-0.05 c 21.56,-42.25 34.86,-88.27 42.64,-134.94 l 0.01,-0.11 c 8.12,-51.11 11.86,-102.77 11.86,-154.51 0,-48.91 -4.82,-97.59 -15.1,-145.45 -9.47,-45.82 -24.92,-90.49 -47.4,-131.62 -21.32,-38.69 -50.1,-71.35 -86.54,-96.35 l -0.08,-0.06 -0.08,-0.05 c -38.76,-25.83 -83.04,-36.63 -129.31,-36.63 -56.95,0 -108.37,19.72 -154.28,52.9 -56.19,40.27 -106.36,93.98 -149.91,147.41 l -3.15,3.88 v 418.47 l 3.03,3.83 c 26.48,33.44 54.74,65.89 85.37,95.62 l 0.07,0.07 0.07,0.07 c 24.36,22.94 50.52,45.19 78.8,63.15"
         style="fill:#acaaa9;fill-opacity:1;fill-rule:evenodd;stroke:none"
         id="path12" /><path
         d="m 3093.64,1476.8 c 1793.47,583.86 2520.74,1300.38 2250.18,1799.85 38.37,59.1 95.04,120.43 138.51,150.24 C 6073.62,2778.93 5159.51,1993.03 3965.45,1476.8 Z m 1997.08,2041.99 c -428.55,313.55 -1580.9,816.02 -2496.76,1026.84 799.77,-143.88 1991.71,-482.08 2624.79,-884.93 -34.25,-31.88 -91.37,-89.26 -128.03,-141.91"
         style="fill:#f6c212;fill-opacity:1;fill-rule:evenodd;stroke:none"
         id="path14" /><path
         d="M 7455.04,4475.96 C 5661.57,3892.09 4919.17,3142.29 5201.84,2667.02 c -38.38,-59.09 -79.91,-93.19 -129.44,-147.2 -591.29,647.95 316.78,1439.9 1510.84,1956.14 z M 5457.96,2433.97 c 313.48,-362.01 1580.91,-816.02 2496.77,-1026.84 -799.77,143.87 -2018.94,445.69 -2624.8,884.93 34.26,31.87 91.37,89.26 128.03,141.91"
         style="fill:#93c227;fill-opacity:1;fill-rule:evenodd;stroke:none"
         id="path16" /><path
         d="m 7923.71,2457.64 c 1.67,1.92 2.69,4.18 2.69,6.75 v 1098.82 c 0,2.57 -1.02,4.83 -2.69,6.76 l -0.33,0.37 -0.29,0.4 c -2.44,3.24 -8.45,5.53 -12.15,6.64 l -0.27,0.08 -0.26,0.1 c -10.28,3.53 -22.28,5.38 -33.04,6.7 -18.27,2.24 -37.28,2.65 -55.67,2.65 -18.2,0 -36.99,-0.44 -55.06,-2.65 -11.01,-1.35 -22.93,-3.23 -33.48,-6.76 l -0.25,-0.08 -0.27,-0.07 c -4.26,-1.24 -10.06,-3.47 -12.98,-7.04 l -0.13,-0.17 -0.14,-0.17 c -1.7,-1.95 -2.41,-4.19 -2.41,-6.76 V 2464.39 c 0,-2.56 0.71,-4.8 2.4,-6.75 l 0.15,-0.18 0.13,-0.17 c 2.85,-3.5 8.44,-5.81 12.61,-7.1 l 0.21,-0.07 0.2,-0.07 c 10.37,-3.58 22.75,-5.4 33.61,-6.69 18.23,-2.2 37.06,-2.67 55.41,-2.67 18.39,0 37.4,0.42 55.67,2.67 10.76,1.31 22.76,3.15 33.04,6.69 l 0.26,0.09 0.27,0.08 c 3.7,1.11 9.71,3.4 12.15,6.64 l 0.29,0.4 z M 7308.1,3569.98 c -5.05,-4.31 -8.92,-9.69 -12.16,-15.47 l -0.31,-0.56 -351.74,-510.81 362.72,-569.89 0.28,-0.55 c 3.46,-6.67 8.15,-12.25 13.91,-17.06 7.35,-5.82 21.47,-8.94 30.43,-10.57 10.47,-1.87 21.54,-2.66 32.15,-3.25 16.44,-0.9 32.98,-1.13 49.44,-1.13 19.64,0 39.95,0.42 59.48,2.67 11.11,1.26 24.57,3.04 35.11,6.9 3.36,1.23 9.64,3.95 12.05,7.04 1.7,3.06 2.68,6.3 2.68,9.86 0,4.27 -2.14,10.73 -3.53,14.73 l -0.1,0.31 -0.08,0.31 c -1.58,5.3 -4.56,11.34 -6.98,16.32 -4.81,9.96 -10.02,19.79 -15.26,29.55 l -353.11,533.72 324.83,425.42 c 10.23,15.84 20.98,32.66 29.63,49.44 3.84,7.93 6.5,16.43 6.5,25.33 0,2.67 -0.79,5.1 -2.45,7.19 l -0.32,0.39 -0.29,0.43 c -2.05,2.99 -9.22,5.84 -12.46,6.99 l -0.13,0.05 c -10.38,3.8 -23,5.62 -33.94,6.91 -18.93,2.23 -38.53,2.66 -57.58,2.66 -18.77,0 -37.83,-0.27 -56.55,-1.79 -11,-0.9 -23.11,-2.41 -33.65,-5.82 -6.31,-2.03 -13.44,-5.02 -18.57,-9.32 z M 6929.06,3021.6 v 540.69 c 0,2.86 -0.62,5.82 -2.44,8.12 l -0.14,0.16 -0.13,0.17 c -2.52,3.36 -7.99,5.49 -11.83,6.64 l -0.27,0.08 -0.27,0.1 c -10.28,3.53 -22.28,5.38 -33.03,6.7 -18.27,2.24 -37.28,2.65 -55.68,2.65 -18.34,0 -37.18,-0.47 -55.39,-2.66 -10.87,-1.3 -23.25,-3.12 -33.62,-6.69 l -0.21,-0.08 -0.21,-0.06 c -4.17,-1.3 -9.75,-3.61 -12.59,-7.11 l -0.15,-0.17 -0.14,-0.17 c -1.85,-2.14 -2.4,-4.92 -2.4,-7.68 V 2466.23 c 0,-2.75 0.55,-5.55 2.39,-7.68 l 0.15,-0.17 0.15,-0.18 c 2.94,-3.61 9.17,-6.38 13.41,-7.99 9.98,-3.78 22.64,-5.59 33.21,-6.85 18.22,-2.2 37.06,-2.67 55.4,-2.67 18.4,0 37.41,0.42 55.68,2.67 10.48,1.27 22.71,3.09 32.62,6.85 l 0.15,0.05 c 3.92,1.44 10.02,4.04 12.63,7.52 l 0.13,0.18 0.14,0.16 c 1.82,2.29 2.44,5.24 2.44,8.11 z m -600.13,543.49 c -28.88,5.62 -58.47,10.75 -87.78,13.28 -25.79,2.23 -51.76,3.02 -77.65,3.02 h -274.01 c -18.14,0 -34.99,-4.53 -48.28,-17.27 -14.17,-13.58 -17.78,-34.26 -17.78,-53.08 V 2464.39 c 0,-2.66 0.78,-5.09 2.45,-7.18 l 0.32,-0.41 0.29,-0.41 c 1.97,-2.86 8.18,-5.23 11.32,-6.2 l 0.21,-0.07 0.21,-0.07 c 10.36,-3.58 22.74,-5.4 33.6,-6.69 18.22,-2.2 37.06,-2.67 55.4,-2.67 18.32,0 37.45,0.38 55.67,2.65 11.01,1.35 22.94,3.23 33.49,6.75 l 0.13,0.05 0.14,0.05 c 4.14,1.28 9.71,3.58 12.57,7.07 1.62,2.04 2.72,4.49 2.72,7.13 v 385.32 h 110.99 c 65.51,0 133.11,6.69 195.83,26.34 50.65,16.26 98.28,40.44 138.21,75.97 l 0.04,0.04 c 38.1,33.61 66.28,74.61 85.25,121.75 l 0.03,0.07 c 21.72,53.19 29.63,111.2 29.63,168.36 0,41.8 -5.43,83.77 -19.16,123.36 -12.13,34.97 -29.92,67.3 -54.6,94.98 l -0.04,0.06 c -24.7,28.01 -54.13,50.34 -87.33,67.38 l -0.12,0.06 c -32.18,16.92 -66.08,29.81 -101.75,37.01 z m 43.76,-340.02 c 0,-29.75 -4.05,-59.18 -13.27,-87.5 -8.5,-26.12 -21.42,-50 -39.65,-70.61 l -0.08,-0.09 c -18.69,-20.81 -41.93,-36.01 -67.85,-46.32 -31.27,-12.44 -66.55,-16.34 -100,-16.34 h -119.89 v 422.68 h 114.68 c 24.6,0 49.15,-1.53 73.52,-5.06 25.34,-3.71 49.24,-12.26 71.19,-25.5 25.26,-15.22 44.13,-38.24 58.16,-63.88 17.76,-32.53 23.19,-70.77 23.19,-107.38"
         style="fill:#acaaa9;fill-opacity:1;fill-rule:evenodd;stroke:none"
         id="path18" /></g></g></svg>
